M48
;GenerationSoftware,Autodesk,EAGLE,9.0.1*%
;CreationDate,2018-06-21T02:26:46Z*%
FMAT,2
ICI,OFF
METRIC,TZ,000.000
T4C0.550
T3C0.800
T2C1.000
T1C1.016
%
G90
M71
T1
X1587Y23812
X26670Y1905
X26670Y4445
X29210Y1905
X29210Y4445
X31750Y1905
X31750Y4445
X34290Y1905
X34290Y4445
X24130Y1905
X21590Y4445
X21590Y1905
X19050Y4445
X19050Y1905
X16510Y4445
X16510Y1905
X24130Y4445
T2
X6350Y1905
X48895Y2540
X46990Y23495
T3
X34290Y22225
X29210Y22225
X26670Y22225
X8890Y22225
X13970Y6985
X6350Y6985
X41910Y6985
X36830Y22225
X13970Y22225
X24130Y22225
X21590Y22225
X19050Y22225
X16510Y22225
X31750Y22225
T4
X19906Y11864
X1905Y16510
X38735Y16510
X6350Y4445
X48895Y6985
X35245Y9044
X15240Y18031
X7620Y20906
X15240Y9525
X42069Y2857
X47466Y19844
X43180Y22225
X21431Y19368
X4604Y16828
X38735Y13494
X12700Y3334
X24289Y7302
X20320Y6032
X31909Y6985
X27305Y6509
X28310Y23985
X25943Y20291
X39370Y12065
X40005Y3175
X48895Y19685
X4445Y11589
X3175Y8255
X28575Y9596
X19936Y13757
X40005Y20955
M30