G04 EAGLE Gerber X2 export*
%TF.Part,Single*%
%TF.FileFunction,Paste,Top*%
%TF.FilePolarity,Positive*%
%TF.GenerationSoftware,Autodesk,EAGLE,9.0.1*%
%TF.CreationDate,2018-06-21T02:26:47Z*%
G75*
%MOMM*%
%FSLAX34Y34*%
%LPD*%
%AMOC8*
5,1,8,0,0,1.08239X$1,22.5*%
G01*
%ADD10R,1.000000X1.100000*%
%ADD11R,1.100000X1.000000*%
%ADD12R,1.400000X1.600000*%
%ADD13R,0.431800X1.778000*%
%ADD14R,1.981200X0.558800*%


D10*
X247650Y108513D03*
X247650Y91513D03*
D11*
X169300Y84138D03*
X186300Y84138D03*
D10*
X228600Y178825D03*
X228600Y195825D03*
X247650Y197413D03*
X247650Y180413D03*
D11*
X391550Y230188D03*
X408550Y230188D03*
X173600Y192088D03*
X156600Y192088D03*
D10*
X120650Y84700D03*
X120650Y67700D03*
X114300Y230750D03*
X114300Y213750D03*
D12*
X64800Y222250D03*
X36800Y222250D03*
D10*
X82550Y110563D03*
X82550Y127563D03*
X63500Y148663D03*
X63500Y165663D03*
X46038Y137550D03*
X46038Y154550D03*
X22225Y182000D03*
X22225Y199000D03*
X220663Y159313D03*
X220663Y142313D03*
X236538Y162488D03*
X236538Y145488D03*
X204788Y183125D03*
X204788Y166125D03*
X44450Y42300D03*
X44450Y59300D03*
X44450Y80400D03*
X44450Y97400D03*
X63500Y119625D03*
X63500Y102625D03*
X30163Y135500D03*
X30163Y118500D03*
X82550Y165663D03*
X82550Y148663D03*
X266700Y91513D03*
X266700Y108513D03*
X254000Y147075D03*
X254000Y164075D03*
D13*
X85500Y49403D03*
X92000Y49403D03*
X98500Y49403D03*
X105000Y49403D03*
X105000Y90297D03*
X98500Y90297D03*
X92000Y90297D03*
X85500Y90297D03*
D14*
X176022Y100013D03*
X176022Y112713D03*
X176022Y125413D03*
X176022Y138113D03*
X176022Y150813D03*
X176022Y163513D03*
X176022Y176213D03*
X128778Y176213D03*
X128778Y163513D03*
X128778Y150813D03*
X128778Y138113D03*
X128778Y125413D03*
X128778Y112713D03*
X128778Y100013D03*
D13*
X212500Y79566D03*
X219000Y79566D03*
X225500Y79566D03*
X232000Y79566D03*
X232000Y120460D03*
X225500Y120460D03*
X219000Y120460D03*
X212500Y120460D03*
D14*
X410972Y100013D03*
X410972Y112713D03*
X410972Y125413D03*
X410972Y138113D03*
X410972Y150813D03*
X410972Y163513D03*
X410972Y176213D03*
X363728Y176213D03*
X363728Y163513D03*
X363728Y150813D03*
X363728Y138113D03*
X363728Y125413D03*
X363728Y112713D03*
X363728Y100013D03*
D11*
X395850Y192088D03*
X378850Y192088D03*
D10*
X323850Y103750D03*
X323850Y86750D03*
D13*
X288700Y74803D03*
X295200Y74803D03*
X301700Y74803D03*
X308200Y74803D03*
X308200Y115697D03*
X301700Y115697D03*
X295200Y115697D03*
X288700Y115697D03*
D10*
X273050Y137550D03*
X273050Y154550D03*
X273050Y175650D03*
X273050Y192650D03*
X311150Y154550D03*
X311150Y137550D03*
X330200Y124850D03*
X330200Y141850D03*
X292100Y154550D03*
X292100Y137550D03*
X330200Y179950D03*
X330200Y162950D03*
X311150Y175650D03*
X311150Y192650D03*
X292100Y175650D03*
X292100Y192650D03*
X476250Y78350D03*
X476250Y61350D03*
D13*
X441100Y49403D03*
X447600Y49403D03*
X454100Y49403D03*
X460600Y49403D03*
X460600Y90297D03*
X454100Y90297D03*
X447600Y90297D03*
X441100Y90297D03*
D10*
X482600Y165663D03*
X482600Y148663D03*
X482600Y112150D03*
X482600Y129150D03*
X442913Y129150D03*
X442913Y112150D03*
D11*
X378850Y80963D03*
X395850Y80963D03*
D10*
X463550Y129150D03*
X463550Y112150D03*
X442913Y164075D03*
X442913Y147075D03*
X463550Y158188D03*
X463550Y175188D03*
D11*
X416950Y192088D03*
X433950Y192088D03*
M02*
